%TF.GenerationSoftware,KiCad,Pcbnew,9.0.7*%
%TF.CreationDate,2026-03-08T15:17:39-05:00*%
%TF.ProjectId,Hackpad,4861636b-7061-4642-9e6b-696361645f70,rev?*%
%TF.SameCoordinates,Original*%
%TF.FileFunction,Legend,Top*%
%TF.FilePolarity,Positive*%
%FSLAX46Y46*%
G04 Gerber Fmt 4.6, Leading zero omitted, Abs format (unit mm)*
G04 Created by KiCad (PCBNEW 9.0.7) date 2026-03-08 15:17:39*
%MOMM*%
%LPD*%
G01*
G04 APERTURE LIST*
%ADD10C,0.150000*%
%ADD11C,0.120000*%
G04 APERTURE END LIST*
D10*
X112126667Y-126533200D02*
X112269524Y-126580819D01*
X112269524Y-126580819D02*
X112507619Y-126580819D01*
X112507619Y-126580819D02*
X112602857Y-126533200D01*
X112602857Y-126533200D02*
X112650476Y-126485580D01*
X112650476Y-126485580D02*
X112698095Y-126390342D01*
X112698095Y-126390342D02*
X112698095Y-126295104D01*
X112698095Y-126295104D02*
X112650476Y-126199866D01*
X112650476Y-126199866D02*
X112602857Y-126152247D01*
X112602857Y-126152247D02*
X112507619Y-126104628D01*
X112507619Y-126104628D02*
X112317143Y-126057009D01*
X112317143Y-126057009D02*
X112221905Y-126009390D01*
X112221905Y-126009390D02*
X112174286Y-125961771D01*
X112174286Y-125961771D02*
X112126667Y-125866533D01*
X112126667Y-125866533D02*
X112126667Y-125771295D01*
X112126667Y-125771295D02*
X112174286Y-125676057D01*
X112174286Y-125676057D02*
X112221905Y-125628438D01*
X112221905Y-125628438D02*
X112317143Y-125580819D01*
X112317143Y-125580819D02*
X112555238Y-125580819D01*
X112555238Y-125580819D02*
X112698095Y-125628438D01*
X113031429Y-125580819D02*
X113269524Y-126580819D01*
X113269524Y-126580819D02*
X113460000Y-125866533D01*
X113460000Y-125866533D02*
X113650476Y-126580819D01*
X113650476Y-126580819D02*
X113888572Y-125580819D01*
X114221905Y-125676057D02*
X114269524Y-125628438D01*
X114269524Y-125628438D02*
X114364762Y-125580819D01*
X114364762Y-125580819D02*
X114602857Y-125580819D01*
X114602857Y-125580819D02*
X114698095Y-125628438D01*
X114698095Y-125628438D02*
X114745714Y-125676057D01*
X114745714Y-125676057D02*
X114793333Y-125771295D01*
X114793333Y-125771295D02*
X114793333Y-125866533D01*
X114793333Y-125866533D02*
X114745714Y-126009390D01*
X114745714Y-126009390D02*
X114174286Y-126580819D01*
X114174286Y-126580819D02*
X114793333Y-126580819D01*
X112086667Y-107533200D02*
X112229524Y-107580819D01*
X112229524Y-107580819D02*
X112467619Y-107580819D01*
X112467619Y-107580819D02*
X112562857Y-107533200D01*
X112562857Y-107533200D02*
X112610476Y-107485580D01*
X112610476Y-107485580D02*
X112658095Y-107390342D01*
X112658095Y-107390342D02*
X112658095Y-107295104D01*
X112658095Y-107295104D02*
X112610476Y-107199866D01*
X112610476Y-107199866D02*
X112562857Y-107152247D01*
X112562857Y-107152247D02*
X112467619Y-107104628D01*
X112467619Y-107104628D02*
X112277143Y-107057009D01*
X112277143Y-107057009D02*
X112181905Y-107009390D01*
X112181905Y-107009390D02*
X112134286Y-106961771D01*
X112134286Y-106961771D02*
X112086667Y-106866533D01*
X112086667Y-106866533D02*
X112086667Y-106771295D01*
X112086667Y-106771295D02*
X112134286Y-106676057D01*
X112134286Y-106676057D02*
X112181905Y-106628438D01*
X112181905Y-106628438D02*
X112277143Y-106580819D01*
X112277143Y-106580819D02*
X112515238Y-106580819D01*
X112515238Y-106580819D02*
X112658095Y-106628438D01*
X112991429Y-106580819D02*
X113229524Y-107580819D01*
X113229524Y-107580819D02*
X113420000Y-106866533D01*
X113420000Y-106866533D02*
X113610476Y-107580819D01*
X113610476Y-107580819D02*
X113848572Y-106580819D01*
X114753333Y-107580819D02*
X114181905Y-107580819D01*
X114467619Y-107580819D02*
X114467619Y-106580819D01*
X114467619Y-106580819D02*
X114372381Y-106723676D01*
X114372381Y-106723676D02*
X114277143Y-106818914D01*
X114277143Y-106818914D02*
X114181905Y-106866533D01*
X112166667Y-145533200D02*
X112309524Y-145580819D01*
X112309524Y-145580819D02*
X112547619Y-145580819D01*
X112547619Y-145580819D02*
X112642857Y-145533200D01*
X112642857Y-145533200D02*
X112690476Y-145485580D01*
X112690476Y-145485580D02*
X112738095Y-145390342D01*
X112738095Y-145390342D02*
X112738095Y-145295104D01*
X112738095Y-145295104D02*
X112690476Y-145199866D01*
X112690476Y-145199866D02*
X112642857Y-145152247D01*
X112642857Y-145152247D02*
X112547619Y-145104628D01*
X112547619Y-145104628D02*
X112357143Y-145057009D01*
X112357143Y-145057009D02*
X112261905Y-145009390D01*
X112261905Y-145009390D02*
X112214286Y-144961771D01*
X112214286Y-144961771D02*
X112166667Y-144866533D01*
X112166667Y-144866533D02*
X112166667Y-144771295D01*
X112166667Y-144771295D02*
X112214286Y-144676057D01*
X112214286Y-144676057D02*
X112261905Y-144628438D01*
X112261905Y-144628438D02*
X112357143Y-144580819D01*
X112357143Y-144580819D02*
X112595238Y-144580819D01*
X112595238Y-144580819D02*
X112738095Y-144628438D01*
X113071429Y-144580819D02*
X113309524Y-145580819D01*
X113309524Y-145580819D02*
X113500000Y-144866533D01*
X113500000Y-144866533D02*
X113690476Y-145580819D01*
X113690476Y-145580819D02*
X113928572Y-144580819D01*
X114214286Y-144580819D02*
X114833333Y-144580819D01*
X114833333Y-144580819D02*
X114500000Y-144961771D01*
X114500000Y-144961771D02*
X114642857Y-144961771D01*
X114642857Y-144961771D02*
X114738095Y-145009390D01*
X114738095Y-145009390D02*
X114785714Y-145057009D01*
X114785714Y-145057009D02*
X114833333Y-145152247D01*
X114833333Y-145152247D02*
X114833333Y-145390342D01*
X114833333Y-145390342D02*
X114785714Y-145485580D01*
X114785714Y-145485580D02*
X114738095Y-145533200D01*
X114738095Y-145533200D02*
X114642857Y-145580819D01*
X114642857Y-145580819D02*
X114357143Y-145580819D01*
X114357143Y-145580819D02*
X114261905Y-145533200D01*
X114261905Y-145533200D02*
X114214286Y-145485580D01*
D11*
%TO.C,SW2*%
X106475000Y-127015000D02*
X120445000Y-127015000D01*
X106475000Y-140985000D02*
X106475000Y-127015000D01*
X120445000Y-127015000D02*
X120445000Y-140985000D01*
X120445000Y-140985000D02*
X106475000Y-140985000D01*
%TO.C,SW1*%
X106435000Y-108015000D02*
X120405000Y-108015000D01*
X106435000Y-121985000D02*
X106435000Y-108015000D01*
X120405000Y-108015000D02*
X120405000Y-121985000D01*
X120405000Y-121985000D02*
X106435000Y-121985000D01*
%TO.C,SW3*%
X106515000Y-146015000D02*
X120485000Y-146015000D01*
X106515000Y-159985000D02*
X106515000Y-146015000D01*
X120485000Y-146015000D02*
X120485000Y-159985000D01*
X120485000Y-159985000D02*
X106515000Y-159985000D01*
%TD*%
M02*
